#!OML:ASF X:\für Bonn\!DataBase\2005_08_11_Bastian_Final\c3d\Bastian.ASF
:FULLY-SPECIFIED
:DEGREES
61
root 1.93593 22.1934 -7.00068 541.972 -187.312 -181.583
lowerback 14.2523 -3.27593 3.19996
upperback 4.03956 -3.84453 0.072533
thorax -3.90827 -1.90419 -1.05558
lowerneck -10.5063 -3.7386 0.769033
upperneck -7.2622 -4.86813 7.22047
head -0.346733 -2.44268 1.99522
rclavicle 3.65267e-014 -1.11319e-014
rhumerus -45.3329 10.8146 -91.8496
rradius 66.2903
rwrist 3.95371
rhand -20.8264 18.4674
rfingers 7.12502
rthumb 5.542 -11.4401
lclavicle 3.65267e-014 -1.11319e-014
lhumerus -48.2056 5.40268 75.5459
lradius 64.536
lwrist -164.97
lhand -22.2604 8.97612
lfingers 7.12502
lthumb 4.15731 38.9153
rfemur -28.5421 -3.98739 18.6048
rtibia 50.8859
rfoot 8.16088 -1.71334
rtoes -18.4663
lfemur -29.5766 7.80431 -18.6606
ltibia 49.5344
lfoot 10.9934 -10.9357
ltoes -35.5808
62
root 1.94415 22.0171 -6.76488 542.101 -187.126 -181.574
lowerback 14.1549 -3.23463 3.32508
upperback 4.054 -3.77514 0.114452
thorax -3.84211 -1.86992 -1.09983
lowerneck -10.5344 -3.69967 0.80102
upperneck -7.4196 -4.81117 7.19795
head -0.395523 -2.41916 1.98616
rclavicle -3.30976e-014 -3.57812e-015
rhumerus -45.3086 10.1901 -91.6641
rradius 64.1467
rwrist 3.47889
rhand -21.342 18.1361
rfingers 7.12502
rthumb 5.04411 -11.7839
lclavicle -3.30976e-014 -3.57812e-015
lhumerus -47.859 6.52918 74.9012
lradius 61.1811
lwrist -165.52
lhand -21.7596 9.10554
lfingers 7.12502
lthumb 4.64094 39.0347
rfemur -28.7984 -3.99056 18.4257
rtibia 50.2443
rfoot 8.51702 -1.64721
rtoes -19.6854
lfemur -29.1419 7.53786 -18.7011
ltibia 47.723
lfoot 11.3022 -10.4932
ltoes -35.7647
63
root 1.94977 21.8267 -6.52491 542.117 -186.924 -181.571
lowerback 14.1499 -3.18015 3.41785
upperback 4.06236 -3.68922 0.152448
thorax -3.82964 -1.82778 -1.12791
lowerneck -10.5431 -3.67537 0.878326
upperneck -7.52067 -4.78227 7.12999
head -0.431238 -2.40959 1.9531
rclavicle -1.83876e-015 -1.09332e-014
rhumerus -45.434 9.52102 -91.4636
rradius 62.1812
rwrist 2.76579
rhand -21.7532 17.8592
rfingers 7.12502
rthumb 4.64709 -12.0698
lclavicle -1.83876e-015 -1.09332e-014
lhumerus -47.4926 7.72024 74.2178
lradius 57.6218
lwrist -165.827
lhand -21.2511 9.02113
lfingers 7.12502
lthumb 5.13188 38.939
rfemur -28.94 -4.00932 18.2712
rtibia 49.6732
rfoot 8.68446 -1.48539
rtoes -21.2014
lfemur -28.545 7.38709 -18.7075
ltibia 45.9321
lfoot 11.6079 -10.1402
ltoes -36.0197
64
root 1.9552 21.6216 -6.28293 542.058 -186.709 -181.514
lowerback 14.2043 -3.12934 3.44179
upperback 4.0828 -3.616 0.17629
thorax -3.83386 -1.79159 -1.12741
lowerneck -10.5712 -3.65047 0.943034
upperneck -7.60183 -4.75368 7.04607
head -0.457516 -2.39898 1.91642
rclavicle 3.63527e-014 -1.03368e-014
rhumerus -45.4841 8.90943 -91.2606
rradius 60.1069
rwrist 1.81543
rhand -22.1328 17.7772
rfingers 7.12502
rthumb 4.28051 -12.1595
lclavicle 3.63527e-014 -1.03368e-014
lhumerus -47.1581 8.91447 73.5384
lradius 53.9854
lwrist -165.738
lhand -20.612 8.84178
lfingers 7.12502
lthumb 5.74899 38.7438
rfemur -28.9935 -3.98936 18.049
rtibia 49.1767
rfoot 8.70518 -1.25664
rtoes -22.9133
lfemur -27.833 7.22448 -18.757
ltibia 44.1846
lfoot 11.8746 -9.80831
ltoes -36.6284
65
root 1.96015 21.4011 -6.03918 542.022 -186.472 -181.517
lowerback 14.1636 -3.0548 3.51577
upperback 4.10634 -3.50801 0.22164
thorax -3.78322 -1.738 -1.14349
lowerneck -10.5805 -3.64961 0.984878
upperneck -7.71328 -4.75305 6.94851
head -0.495269 -2.40299 1.87925
rclavicle -2.46245e-014 1.33186e-014
rhumerus -45.5305 8.29901 -91.0081
rradius 58.0473
rwrist 0.830712
rhand -22.3898 17.8452
rfingers 7.12502
rthumb 4.03239 -12.0964
lclavicle -2.46245e-014 1.33186e-014
lhumerus -46.8738 10.0976 72.8161
lradius 50.3427
lwrist -165.283
lhand -20.2611 8.67057
lfingers 7.12502
lthumb 6.08773 38.5631
rfemur -29.076 -3.96979 17.9142
rtibia 48.738
rfoot 8.55135 -0.930044
rtoes -24.7437
lfemur -27.1597 7.09912 -18.727
ltibia 42.5344
lfoot 12.0913 -9.49043
ltoes -37.1077
